<svg width="32" height="32" viewBox="0 0 32 32" fill="none" xmlns="http://www.w3.org/2000/svg">
<path d="M15.9958 32C12.5699 32.0009 9.23405 30.9022 6.47881 28.8656C3.72358 26.829 1.69432 23.9619 0.689382 20.6858C0.597612 20.3912 0.512236 20.0731 0.426868 19.7102C0.140859 18.4943 -0.00238804 17.2491 3.01089e-05 16V15.9274L0.0661895 15.8954C0.18357 15.8399 2.94309 14.527 4.46476 14.1748C5.59193 13.9138 6.74391 13.7749 7.9008 13.7606H7.9691H8.06087H8.15477H8.22734C9.97756 13.7395 11.6994 13.3159 13.2597 12.5225C13.6819 12.3107 14.0904 12.0725 14.4826 11.8095C15.8475 10.8877 17.0018 9.68721 17.8696 8.28712C17.9059 8.21881 17.9486 8.14836 17.9891 8.07364L18.0958 7.89006C18.1385 7.81534 18.1791 7.74276 18.2239 7.67658C18.686 6.81186 19.0353 5.89137 19.2632 4.93769C18.5122 4.71722 17.7406 4.57415 16.9604 4.51073C16.6126 4.48085 16.301 4.46805 16.0064 4.46805C13.8385 4.47032 11.7149 5.08299 9.87877 6.23595C8.0426 7.3889 6.56798 9.03558 5.62363 10.9876L5.59588 11.0431H5.53612C4.1972 11.2238 2.88146 11.5473 1.61135 12.008C1.23147 12.1446 0.900666 12.2749 0.595477 12.4051L0.382058 12.4969L0.435413 12.2834C0.520781 11.9269 0.604008 11.6088 0.695778 11.3142C1.7025 8.03919 3.73224 5.1732 6.48707 3.13688C9.24191 1.10055 12.5768 0.00114602 16.0022 0C17.211 0.00165467 18.4159 0.139138 19.594 0.40987C19.976 0.497395 20.3218 0.589193 20.6483 0.687392C21.8189 1.04302 22.9446 1.53226 24.0033 2.14543C24.0673 2.18386 24.1014 2.2052 23.8795 4.01974C23.7811 5.00082 23.6041 5.97241 23.3502 6.92514C23.0083 8.04898 22.5446 9.13205 21.9673 10.155L21.9182 10.249L21.8627 10.3386C21.0081 11.8428 20.5074 13.5219 20.3986 15.2486C20.3794 15.541 20.3709 15.7844 20.3709 16.0149C20.3709 16.2455 20.3709 16.4953 20.4008 16.7941C20.5147 18.5411 21.0303 20.2382 21.9075 21.7532C22.4591 22.7085 23.1447 23.5798 23.9435 24.3405C25.9207 22.4571 27.1651 19.9327 27.4551 17.2171C27.7452 14.5015 27.0619 11.7711 25.5271 9.51247L25.4929 9.46123L25.5164 9.4036C26.0334 8.15402 26.4134 6.85203 26.6497 5.52048C26.7116 5.17679 26.7628 4.82669 26.8055 4.4531L26.8332 4.22468L26.9997 4.38265C27.2472 4.61748 27.4841 4.85444 27.7039 5.09139C30.4648 8.05343 32 11.9525 32 16.0021C32 20.0518 30.4648 23.9508 27.7039 26.9129C27.4905 27.1498 27.2451 27.3889 26.9954 27.6259C26.0863 28.4879 25.0792 29.2402 23.9947 29.8674L23.9691 29.8823H23.9371C23.8069 29.8823 21.1008 27.9098 20.1724 26.915C19.4329 26.1213 18.7751 25.2552 18.2089 24.3298C18.1663 24.2594 18.1236 24.1847 18.083 24.1163L17.9742 23.9285L17.8504 23.715C16.9841 22.3163 15.8312 21.1173 14.4677 20.1969C12.6122 18.9595 10.44 18.2822 8.21026 18.2458H8.13769H8.04806H7.95416H7.88586C6.83746 18.2597 5.79576 18.4155 4.78915 18.709C4.97988 19.5094 5.25681 20.2867 5.61508 21.0273C6.56127 22.9752 8.03687 24.617 9.8728 25.7648C11.7087 26.9125 13.8308 27.5198 15.9958 27.517C16.286 27.517 16.5934 27.5042 16.9391 27.4764H17.0031L17.0415 27.5277C17.8405 28.564 18.7453 29.5141 19.7413 30.3626C20.0507 30.6252 20.3687 30.8792 20.6867 31.1162L20.8681 31.2528L20.6547 31.319C20.3239 31.4193 19.976 31.5111 19.5876 31.5987C18.4091 31.8665 17.2043 32.0011 15.9958 32Z" fill="#E63327"/>
</svg>
